{
	"asset":{
		"generator":"Khronos glTF Blender I/O v3.6.27",
		"version":"2.0"
	},
	"scene":0,
	"scenes":[
		{
			"name":"Scene",
			"nodes":[
				0,
				1,
				2,
				3,
				4,
				5,
				6
			]
		}
	],
	"nodes":[
		{
			"mesh":0,
			"name":"MainBox",
			"scale":[
				0.8149999976158142,
				1,
				1.024999737739563
			]
		},
		{
			"mesh":1,
			"name":"InnerBox",
			"scale":[
				0.8149999976158142,
				1,
				1.024999976158142
			],
			"translation":[
				0,
				0,
				-0.7895853519439697
			]
		},
		{
			"mesh":2,
			"name":"ChocolateHolder",
			"scale":[
				0.8149999976158142,
				1,
				1.024999976158142
			],
			"translation":[
				0,
				0,
				-0.7895853519439697
			]
		},
		{
			"mesh":3,
			"name":"Wood",
			"scale":[
				0.7900000214576721,
				1,
				1
			],
			"translation":[
				0,
				0.8157409429550171,
				0
			]
		},
		{
			"mesh":4,
			"name":"CustomizedSticker",
			"scale":[
				0.8149999976158142,
				1,
				1.024999737739563
			]
		},
		{
			"mesh":5,
			"name":"Chocolate1",
			"scale":[
				0.8149999976158142,
				1,
				1.024999976158142
			],
			"translation":[
				0,
				0,
				-0.7895853519439697
			]
		},
		{
			"mesh":6,
			"name":"Chocolate2",
			"scale":[
				0.8149999976158142,
				1,
				1.024999976158142
			],
			"translation":[
				0,
				0,
				-0.7895853519439697
			]
		}
	],
	"materials":[
		{
			"doubleSided":true,
			"name":"Outer Box.001",
			"pbrMetallicRoughness":{
				"baseColorFactor":[
					0.800000011920929,
					0.800000011920929,
					0.800000011920929,
					1
				],
				"metallicFactor":0,
				"roughnessFactor":0.5
			}
		},
		{
			"doubleSided":true,
			"name":"Inner Box.001",
			"pbrMetallicRoughness":{
				"baseColorFactor":[
					0.800000011920929,
					0.800000011920929,
					0.800000011920929,
					1
				],
				"metallicFactor":0,
				"roughnessFactor":0.5
			}
		},
		{
			"doubleSided":true,
			"name":"Opaque Box Holder.001",
			"pbrMetallicRoughness":{
				"baseColorFactor":[
					0.800000011920929,
					0.800000011920929,
					0.800000011920929,
					1
				],
				"metallicFactor":0,
				"roughnessFactor":0.5
			}
		},
		{
			"doubleSided":true,
			"name":"Wood.001",
			"pbrMetallicRoughness":{
				"baseColorFactor":[
					0.800000011920929,
					0.800000011920929,
					0.800000011920929,
					1
				],
				"metallicFactor":0,
				"roughnessFactor":0.5
			}
		},
		{
			"doubleSided":true,
			"name":"Custom.001",
			"pbrMetallicRoughness":{
				"baseColorFactor":[
					0.800000011920929,
					0.800000011920929,
					0.800000011920929,
					1
				],
				"metallicFactor":0,
				"roughnessFactor":0.5
			}
		},
		{
			"doubleSided":true,
			"name":"Chocolate 1.001",
			"pbrMetallicRoughness":{
				"baseColorFactor":[
					0.800000011920929,
					0.800000011920929,
					0.800000011920929,
					1
				],
				"metallicFactor":0,
				"roughnessFactor":0.5
			}
		},
		{
			"doubleSided":true,
			"name":"Chocolate 2.001",
			"pbrMetallicRoughness":{
				"baseColorFactor":[
					0.800000011920929,
					0.800000011920929,
					0.800000011920929,
					1
				],
				"metallicFactor":0,
				"roughnessFactor":0.5
			}
		}
	],
	"meshes":[
		{
			"name":"Plane.001",
			"primitives":[
				{
					"attributes":{
						"POSITION":0,
						"NORMAL":1,
						"TEXCOORD_0":2
					},
					"indices":3,
					"material":0
				}
			]
		},
		{
			"name":"Plane.002",
			"primitives":[
				{
					"attributes":{
						"POSITION":4,
						"NORMAL":5,
						"TEXCOORD_0":6
					},
					"indices":7,
					"material":1
				}
			]
		},
		{
			"name":"Plane.003",
			"primitives":[
				{
					"attributes":{
						"POSITION":8,
						"NORMAL":9,
						"TEXCOORD_0":10
					},
					"indices":11,
					"material":2
				}
			]
		},
		{
			"name":"Plane.004",
			"primitives":[
				{
					"attributes":{
						"POSITION":12,
						"NORMAL":13,
						"TEXCOORD_0":14
					},
					"indices":15,
					"material":3
				}
			]
		},
		{
			"name":"Plane.007",
			"primitives":[
				{
					"attributes":{
						"POSITION":16,
						"NORMAL":17,
						"TEXCOORD_0":18
					},
					"indices":19,
					"material":4
				}
			]
		},
		{
			"name":"Plane.008",
			"primitives":[
				{
					"attributes":{
						"POSITION":20,
						"NORMAL":21,
						"TEXCOORD_0":22
					},
					"indices":23,
					"material":5
				}
			]
		},
		{
			"name":"Plane.011",
			"primitives":[
				{
					"attributes":{
						"POSITION":24,
						"NORMAL":25,
						"TEXCOORD_0":26
					},
					"indices":27,
					"material":6
				}
			]
		}
	],
	"accessors":[
		{
			"bufferView":0,
			"componentType":5126,
			"count":91,
			"max":[
				1,
				0.8100000023841858,
				1.000000238418579
			],
			"min":[
				-1,
				0,
				-1.000000238418579
			],
			"type":"VEC3"
		},
		{
			"bufferView":1,
			"componentType":5126,
			"count":91,
			"type":"VEC3"
		},
		{
			"bufferView":2,
			"componentType":5126,
			"count":91,
			"type":"VEC2"
		},
		{
			"bufferView":3,
			"componentType":5123,
			"count":150,
			"type":"SCALAR"
		},
		{
			"bufferView":4,
			"componentType":5126,
			"count":40,
			"max":[
				0.9900000095367432,
				0.800000011920929,
				0.9902437925338745
			],
			"min":[
				-0.9900000095367432,
				0.009999998845160007,
				-1.000000238418579
			],
			"type":"VEC3"
		},
		{
			"bufferView":5,
			"componentType":5126,
			"count":40,
			"type":"VEC3"
		},
		{
			"bufferView":6,
			"componentType":5126,
			"count":40,
			"type":"VEC2"
		},
		{
			"bufferView":7,
			"componentType":5123,
			"count":102,
			"type":"SCALAR"
		},
		{
			"bufferView":8,
			"componentType":5126,
			"count":7670,
			"max":[
				0.9599999785423279,
				0.800000011920929,
				0.960243821144104
			],
			"min":[
				-0.9599999785423279,
				0.699999988079071,
				-0.9700002670288086
			],
			"type":"VEC3"
		},
		{
			"bufferView":9,
			"componentType":5126,
			"count":7670,
			"type":"VEC3"
		},
		{
			"bufferView":10,
			"componentType":5126,
			"count":7670,
			"type":"VEC2"
		},
		{
			"bufferView":11,
			"componentType":5123,
			"count":9312,
			"type":"SCALAR"
		},
		{
			"bufferView":12,
			"componentType":5126,
			"count":8,
			"max":[
				1,
				0,
				1
			],
			"min":[
				-1,
				0,
				-1
			],
			"type":"VEC3"
		},
		{
			"bufferView":13,
			"componentType":5126,
			"count":8,
			"type":"VEC3"
		},
		{
			"bufferView":14,
			"componentType":5126,
			"count":8,
			"type":"VEC2"
		},
		{
			"bufferView":15,
			"componentType":5123,
			"count":24,
			"type":"SCALAR"
		},
		{
			"bufferView":16,
			"componentType":5126,
			"count":24,
			"max":[
				0.49079757928848267,
				0.8310926556587219,
				0.6097561717033386
			],
			"min":[
				-0.49079757928848267,
				0.8100000023841858,
				-0.6097561717033386
			],
			"type":"VEC3"
		},
		{
			"bufferView":17,
			"componentType":5126,
			"count":24,
			"type":"VEC3"
		},
		{
			"bufferView":18,
			"componentType":5126,
			"count":24,
			"type":"VEC2"
		},
		{
			"bufferView":19,
			"componentType":5123,
			"count":36,
			"type":"SCALAR"
		},
		{
			"bufferView":20,
			"componentType":5126,
			"count":336,
			"max":[
				0.905500054359436,
				0.7899999618530273,
				0.9096798300743103
			],
			"min":[
				-0.905500054359436,
				0.699999988079071,
				-0.9194362759590149
			],
			"type":"VEC3"
		},
		{
			"bufferView":21,
			"componentType":5126,
			"count":336,
			"type":"VEC3"
		},
		{
			"bufferView":22,
			"componentType":5126,
			"count":336,
			"type":"VEC2"
		},
		{
			"bufferView":23,
			"componentType":5123,
			"count":648,
			"type":"SCALAR"
		},
		{
			"bufferView":24,
			"componentType":5126,
			"count":48,
			"max":[
				0.828950047492981,
				0.7899999618530273,
				0.8406081795692444
			],
			"min":[
				-0.828950047492981,
				0.7899999618530273,
				-0.850364625453949
			],
			"type":"VEC3"
		},
		{
			"bufferView":25,
			"componentType":5126,
			"count":48,
			"type":"VEC3"
		},
		{
			"bufferView":26,
			"componentType":5126,
			"count":48,
			"type":"VEC2"
		},
		{
			"bufferView":27,
			"componentType":5123,
			"count":72,
			"type":"SCALAR"
		}
	],
	"bufferViews":[
		{
			"buffer":0,
			"byteLength":1092,
			"byteOffset":0,
			"target":34962
		},
		{
			"buffer":0,
			"byteLength":1092,
			"byteOffset":1092,
			"target":34962
		},
		{
			"buffer":0,
			"byteLength":728,
			"byteOffset":2184,
			"target":34962
		},
		{
			"buffer":0,
			"byteLength":300,
			"byteOffset":2912,
			"target":34963
		},
		{
			"buffer":0,
			"byteLength":480,
			"byteOffset":3212,
			"target":34962
		},
		{
			"buffer":0,
			"byteLength":480,
			"byteOffset":3692,
			"target":34962
		},
		{
			"buffer":0,
			"byteLength":320,
			"byteOffset":4172,
			"target":34962
		},
		{
			"buffer":0,
			"byteLength":204,
			"byteOffset":4492,
			"target":34963
		},
		{
			"buffer":0,
			"byteLength":92040,
			"byteOffset":4696,
			"target":34962
		},
		{
			"buffer":0,
			"byteLength":92040,
			"byteOffset":96736,
			"target":34962
		},
		{
			"buffer":0,
			"byteLength":61360,
			"byteOffset":188776,
			"target":34962
		},
		{
			"buffer":0,
			"byteLength":18624,
			"byteOffset":250136,
			"target":34963
		},
		{
			"buffer":0,
			"byteLength":96,
			"byteOffset":268760,
			"target":34962
		},
		{
			"buffer":0,
			"byteLength":96,
			"byteOffset":268856,
			"target":34962
		},
		{
			"buffer":0,
			"byteLength":64,
			"byteOffset":268952,
			"target":34962
		},
		{
			"buffer":0,
			"byteLength":48,
			"byteOffset":269016,
			"target":34963
		},
		{
			"buffer":0,
			"byteLength":288,
			"byteOffset":269064,
			"target":34962
		},
		{
			"buffer":0,
			"byteLength":288,
			"byteOffset":269352,
			"target":34962
		},
		{
			"buffer":0,
			"byteLength":192,
			"byteOffset":269640,
			"target":34962
		},
		{
			"buffer":0,
			"byteLength":72,
			"byteOffset":269832,
			"target":34963
		},
		{
			"buffer":0,
			"byteLength":4032,
			"byteOffset":269904,
			"target":34962
		},
		{
			"buffer":0,
			"byteLength":4032,
			"byteOffset":273936,
			"target":34962
		},
		{
			"buffer":0,
			"byteLength":2688,
			"byteOffset":277968,
			"target":34962
		},
		{
			"buffer":0,
			"byteLength":1296,
			"byteOffset":280656,
			"target":34963
		},
		{
			"buffer":0,
			"byteLength":576,
			"byteOffset":281952,
			"target":34962
		},
		{
			"buffer":0,
			"byteLength":576,
			"byteOffset":282528,
			"target":34962
		},
		{
			"buffer":0,
			"byteLength":384,
			"byteOffset":283104,
			"target":34962
		},
		{
			"buffer":0,
			"byteLength":144,
			"byteOffset":283488,
			"target":34963
		}
	],
	"buffers":[
		{
			"byteLength":283632,
			"uri":"data:application/octet-stream;base64,"
		}
	]
}
